<?xml version="1.0" encoding="UTF-8"?>
<svg id="Layer_1" data-name="Layer 1" xmlns="http://www.w3.org/2000/svg" viewBox="0 0 366.27 366.27">
  <defs>
    <style>
      .cls-1 {
        fill: none;
        stroke: #2b2d42;
        stroke-miterlimit: 10;
        stroke-width: 6.03px;
      }

      .cls-2 {
        fill: #fff;
      }

      .cls-3 {
        fill: #fbb040;
      }

      .cls-4 {
        fill: #edf6f0;
      }

      .cls-5 {
        fill: #2b2d42;
      }
    </style>
  </defs>
  <g>
    <g>
      <path class="cls-5" d="m89.19,89.99l7.38-6.59c.92-.82,1.87-1.48,2.86-1.96.99-.49,1.96-.77,2.91-.85.96-.08,1.9.07,2.83.45s1.8,1.02,2.6,1.92c1.09,1.22,1.64,2.53,1.65,3.9,0,1.38-.37,2.73-1.12,4.06l.05.06c.68-.53,1.42-.9,2.24-1.11.82-.21,1.64-.26,2.47-.16s1.64.36,2.44.77c.79.41,1.51.97,2.16,1.69.86.96,1.42,1.98,1.68,3.07.26,1.08.28,2.18.05,3.29-.23,1.11-.68,2.2-1.35,3.26-.67,1.07-1.52,2.06-2.56,2.99l-7.28,6.51-19-21.3Zm10.77,6.27l3.93-3.51c.54-.48,1-.99,1.38-1.53s.64-1.1.76-1.68c.13-.58.12-1.17-.03-1.76s-.48-1.17-1-1.76c-.75-.84-1.67-1.33-2.77-1.47-1.09-.14-2.22.31-3.38,1.35l-4.53,4.05,5.64,6.32Zm8.86,9.93l4.23-3.78c.44-.39.88-.87,1.33-1.43.45-.56.78-1.19,1-1.87s.28-1.4.19-2.14c-.09-.75-.48-1.5-1.16-2.26-1.13-1.26-2.38-1.84-3.77-1.74-1.38.1-2.77.78-4.17,2.03l-4.26,3.81,6.6,7.4Z"/>
      <path class="cls-5" d="m115.8,69.09l8.2,15.46c.41.78.95,1.54,1.61,2.27.66.73,1.43,1.32,2.3,1.77.88.45,1.84.69,2.88.71s2.16-.28,3.34-.9c1.18-.63,2.06-1.38,2.63-2.26s.91-1.81,1.03-2.78c.12-.98.06-1.94-.17-2.9-.23-.96-.56-1.83-.97-2.61l-8.2-15.46,3.41-1.81,8.48,16c.78,1.47,1.24,2.94,1.38,4.4.14,1.46,0,2.87-.41,4.21-.41,1.34-1.08,2.57-2.01,3.67-.93,1.1-2.09,2.02-3.46,2.75-1.37.73-2.78,1.17-4.21,1.32-1.44.15-2.83.02-4.17-.39s-2.58-1.09-3.71-2.03c-1.13-.94-2.09-2.14-2.87-3.61l-8.48-15.99,3.41-1.81Z"/>
      <path class="cls-5" d="m147.03,81.28l10.4-24.63-15.24,3.9-.91-3.51,19.91-5.09.91,3.51-10.32,24.61,15.86-4.06.9,3.51-20.61,5.27-.9-3.52Z"/>
      <path class="cls-5" d="m169.53,75.74l15.46-21.8-15.73.52-.13-3.63,20.55-.67.13,3.63-15.38,21.79,16.37-.54.13,3.62-21.27.7-.13-3.62Z"/>
      <path class="cls-5" d="m200.24,51l3.78.81-2.44,11.59,14.45,3.09,2.44-11.59,3.78.81-5.88,27.9-3.78-.81,2.69-12.77-14.45-3.09-2.69,12.77-3.78-.81,5.88-27.9Z"/>
      <path class="cls-5" d="m237.53,61.7l-7.91,15.57c-.4.79-.71,1.66-.93,2.62-.22.96-.26,1.93-.12,2.9.14.97.5,1.9,1.08,2.77s1.47,1.61,2.67,2.22c1.2.61,2.32.9,3.36.86,1.04-.04,2-.29,2.87-.75.87-.46,1.62-1.06,2.27-1.8.65-.74,1.17-1.5,1.57-2.29l7.91-15.57,3.44,1.76-8.19,16.11c-.75,1.48-1.69,2.7-2.8,3.65-1.12.95-2.34,1.64-3.68,2.08-1.34.43-2.72.58-4.16.45-1.44-.13-2.85-.55-4.24-1.26-1.39-.71-2.56-1.61-3.51-2.7-.95-1.09-1.65-2.3-2.08-3.64-.44-1.34-.6-2.74-.49-4.2.11-1.47.54-2.94,1.3-4.42l8.19-16.11,3.44,1.76Z"/>
      <path class="cls-5" d="m263.64,76.97l7.48,6.51c.93.81,1.7,1.68,2.31,2.6.61.92,1.01,1.85,1.21,2.79s.17,1.89-.08,2.86c-.25.97-.78,1.91-1.57,2.82-1.07,1.24-2.29,1.95-3.65,2.12-1.37.18-2.75-.02-4.17-.61l-.05.06c.61.6,1.08,1.3,1.39,2.09.31.79.47,1.6.47,2.44,0,.84-.15,1.68-.45,2.52-.3.84-.77,1.62-1.4,2.35-.84.97-1.78,1.66-2.82,2.05s-2.12.55-3.25.45-2.26-.4-3.4-.94c-1.14-.53-2.24-1.25-3.29-2.17l-7.39-6.43,18.66-21.52Zm-13.52,21.51l4.29,3.73c.44.39.98.77,1.59,1.15s1.28.63,1.98.76c.7.13,1.42.11,2.15-.08.73-.18,1.43-.66,2.09-1.43,1.11-1.28,1.52-2.6,1.24-3.96-.28-1.36-1.13-2.66-2.55-3.89l-4.32-3.76-6.48,7.48Zm8.7-10.03l3.98,3.47c.55.48,1.11.87,1.7,1.18.58.31,1.17.5,1.76.55.59.06,1.17-.03,1.74-.25.56-.22,1.1-.62,1.61-1.21.74-.85,1.1-1.83,1.1-2.93,0-1.1-.59-2.17-1.77-3.19l-4.59-4-5.53,6.38Z"/>
      <path class="cls-5" d="m309.99,142.37l2.38,9.63c.3,1.2.43,2.35.4,3.45s-.24,2.09-.61,2.97c-.38.88-.95,1.65-1.71,2.29-.77.64-1.73,1.11-2.91,1.4-1.59.39-2.99.27-4.22-.38-1.22-.64-2.24-1.61-3.06-2.9l-.08.02c.15.85.13,1.68-.06,2.51-.2.82-.54,1.58-1.01,2.26-.48.69-1.08,1.28-1.81,1.8s-1.56.88-2.5,1.11c-1.25.31-2.41.32-3.49.05-1.08-.28-2.05-.78-2.92-1.5-.87-.73-1.62-1.64-2.25-2.73-.63-1.09-1.11-2.31-1.45-3.67l-2.35-9.51,27.65-6.8Zm-23.44,9.75l1.37,5.52c.14.57.36,1.19.65,1.85s.68,1.25,1.18,1.76c.5.51,1.1.9,1.8,1.18.7.27,1.55.28,2.54.04,1.64-.4,2.74-1.24,3.29-2.51.56-1.27.61-2.82.16-4.65l-1.37-5.56-9.61,2.36Zm12.89-3.17l1.27,5.13c.17.7.41,1.35.71,1.94s.68,1.08,1.13,1.47c.45.39.98.65,1.57.8.59.15,1.26.13,2.02-.06,1.09-.27,1.96-.85,2.59-1.76.63-.9.76-2.11.39-3.62l-1.46-5.91-8.2,2.02Z"/>
      <path class="cls-5" d="m316.03,175.89l-17.47-.07c-.89,0-1.8.11-2.76.35-.95.24-1.83.64-2.64,1.2-.81.56-1.47,1.3-1.98,2.21-.51.91-.77,2.04-.77,3.38,0,1.34.25,2.47.76,3.39.51.91,1.16,1.66,1.97,2.22.8.57,1.68.97,2.63,1.22.95.25,1.87.37,2.75.37l17.47.07v3.87s-18.08-.08-18.08-.08c-1.66,0-3.17-.3-4.53-.87-1.35-.57-2.53-1.35-3.52-2.35-.99-1-1.75-2.17-2.29-3.52-.53-1.35-.8-2.8-.8-4.36,0-1.56.27-3.01.81-4.35.54-1.34,1.31-2.51,2.3-3.5.99-.99,2.17-1.76,3.53-2.32,1.36-.56,2.86-.83,4.53-.83l18.07.08v3.87Z"/>
      <path class="cls-5" d="m290.64,197.66l16.84,20.82,3.69-15.31,3.52.86-4.83,20-3.52-.86-16.86-20.74-3.85,15.93-3.52-.86,5-20.71,3.52.86Z"/>
      <path class="cls-5" d="m284.95,220.27l12.01,23.94,6.89-14.15,3.26,1.6-9,18.49-3.26-1.6-12.04-23.87-7.17,14.73-3.26-1.6,9.32-19.15,3.26,1.59Z"/>
      <path class="cls-5" d="m292.46,259.06l-2.48,2.96-9.07-7.63-9.48,11.32,9.07,7.63-2.48,2.96-21.85-18.36,2.48-2.96,10,8.4,9.48-11.32-10-8.4,2.48-2.96,21.85,18.36Z"/>
      <path class="cls-5" d="m265.58,286.95l-10-14.36c-.51-.73-1.13-1.42-1.87-2.06-.74-.65-1.58-1.14-2.5-1.48-.92-.34-1.9-.46-2.94-.36-1.04.1-2.11.54-3.21,1.3-1.1.77-1.88,1.62-2.33,2.56-.46.94-.68,1.9-.68,2.89,0,.98.17,1.94.52,2.86.35.92.77,1.75,1.28,2.47l10,14.36-3.17,2.21-10.35-14.86c-.95-1.37-1.59-2.77-1.9-4.21s-.35-2.85-.1-4.23c.25-1.38.76-2.68,1.56-3.89.79-1.21,1.83-2.26,3.1-3.15,1.28-.89,2.62-1.5,4.02-1.82,1.41-.33,2.8-.36,4.18-.11,1.38.25,2.69.77,3.93,1.56s2.33,1.87,3.29,3.24l10.35,14.86-3.17,2.21Z"/>
      <path class="cls-5" d="m239.9,302.8l-9.23,3.55c-1.15.44-2.27.72-3.37.82s-2.1.03-3.02-.24c-.92-.27-1.75-.74-2.49-1.42s-1.32-1.59-1.76-2.71c-.59-1.53-.65-2.94-.17-4.23.48-1.29,1.31-2.42,2.48-3.4l-.03-.08c-.82.26-1.65.34-2.49.25-.84-.09-1.63-.34-2.37-.73-.74-.39-1.41-.92-2.01-1.58-.6-.66-1.07-1.44-1.42-2.35-.46-1.21-.63-2.36-.49-3.46.13-1.1.51-2.13,1.12-3.09.61-.95,1.41-1.81,2.41-2.57,1-.76,2.15-1.39,3.45-1.89l9.12-3.51,10.27,26.64Zm-7.87-9.67l-4.92,1.89c-.67.26-1.29.57-1.84.94-.55.37-.98.8-1.31,1.3-.33.5-.52,1.05-.59,1.65-.07.6.04,1.27.32,1.99.41,1.05,1.1,1.84,2.07,2.36.97.52,2.19.5,3.64-.06l5.67-2.18-3.05-7.9Zm-4.79-12.42l-5.29,2.04c-.55.21-1.14.5-1.76.87-.62.37-1.15.83-1.6,1.39-.44.56-.76,1.2-.93,1.94-.18.73-.08,1.57.28,2.53.61,1.58,1.58,2.57,2.91,2.96,1.33.4,2.87.26,4.62-.42l5.33-2.05-3.57-9.25Z"/>
      <path class="cls-5" d="m160.54,312.89l-9.6-2.44c-1.2-.3-2.27-.73-3.23-1.28-.95-.55-1.73-1.2-2.33-1.94-.6-.75-1.01-1.61-1.22-2.6s-.17-2.06.13-3.23c.4-1.59,1.17-2.77,2.31-3.55s2.47-1.22,3.99-1.33l.02-.08c-.82-.26-1.55-.68-2.18-1.24-.63-.56-1.14-1.22-1.52-1.97s-.62-1.56-.73-2.45c-.11-.89-.05-1.8.19-2.74.32-1.25.85-2.29,1.59-3.11.75-.82,1.64-1.45,2.69-1.87,1.05-.43,2.2-.66,3.46-.7s2.56.11,3.91.46l9.48,2.41-6.96,27.65Zm-.86-12.43l-5.11-1.3c-.7-.18-1.38-.28-2.04-.29s-1.27.09-1.82.3c-.55.22-1.03.56-1.44,1.01-.4.45-.7,1.05-.89,1.81-.28,1.09-.16,2.13.34,3.12.5.99,1.5,1.67,3.01,2.06l5.89,1.5,2.06-8.2Zm3.25-12.89l-5.5-1.4c-.57-.15-1.22-.25-1.94-.31-.72-.06-1.42.01-2.11.21s-1.31.54-1.88,1.04c-.57.49-.98,1.23-1.22,2.22-.41,1.64-.19,3.01.67,4.1.86,1.09,2.2,1.87,4.02,2.33l5.54,1.41,2.42-9.61Z"/>
      <path class="cls-5" d="m128.26,302.46l8.2-15.42c.42-.78.74-1.65.98-2.6.23-.96.29-1.92.17-2.9-.12-.98-.46-1.91-1.03-2.79-.56-.88-1.44-1.64-2.62-2.27-1.18-.63-2.3-.94-3.34-.92-1.04.02-2,.25-2.88.7-.88.44-1.64,1.03-2.3,1.76s-1.2,1.48-1.62,2.26l-8.2,15.42-3.41-1.83,8.49-15.95c.78-1.47,1.74-2.67,2.87-3.6,1.13-.93,2.37-1.6,3.72-2.01,1.34-.41,2.73-.53,4.17-.37,1.44.16,2.84.61,4.21,1.34,1.37.74,2.53,1.66,3.46,2.76.93,1.11,1.6,2.33,2.01,3.68.41,1.35.54,2.75.41,4.21s-.6,2.93-1.38,4.4l-8.49,15.95-3.41-1.83Z"/>
      <path class="cls-5" d="m120.86,269.74l-26.24,5.06,11.76,10.49-2.4,2.71-15.38-13.71,2.41-2.71,26.17-5.11-12.25-10.92,2.41-2.71,15.92,14.19-2.41,2.71Z"/>
      <path class="cls-5" d="m103.62,254.08l-26.72-.73,9.23,12.78-2.93,2.12-12.07-16.7,2.93-2.12,26.67.66-9.61-13.3,2.93-2.12,12.49,17.29-2.93,2.12Z"/>
      <path class="cls-5" d="m65.95,242.4l-1.46-3.59,10.96-4.44-5.56-13.71-10.96,4.44-1.46-3.59,26.39-10.68,1.46,3.59-12.08,4.89,5.56,13.71,12.08-4.89,1.46,3.59-26.39,10.68Z"/>
      <path class="cls-5" d="m53.87,205.44l17.34-2.07c.88-.11,1.78-.33,2.69-.69.92-.35,1.74-.86,2.47-1.51.73-.66,1.29-1.47,1.69-2.44.4-.97.51-2.12.35-3.45-.16-1.33-.55-2.42-1.17-3.27-.61-.85-1.36-1.5-2.22-1.97s-1.79-.76-2.76-.89c-.97-.13-1.9-.14-2.78-.03l-17.34,2.07-.47-3.84,17.94-2.15c1.65-.2,3.18-.1,4.6.3s2.67,1.03,3.78,1.9c1.11.87,2.01,1.94,2.7,3.21s1.14,2.68,1.32,4.23c.19,1.55.1,3.02-.27,4.42-.37,1.4-.99,2.65-1.85,3.75-.87,1.11-1.94,2.02-3.21,2.74s-2.74,1.18-4.39,1.38l-17.94,2.15-.47-3.84Z"/>
      <path class="cls-5" d="m51.93,175.22l1.21-9.84c.15-1.23.44-2.35.86-3.36.42-1.02.97-1.87,1.63-2.56.67-.69,1.47-1.19,2.42-1.52s2.02-.42,3.22-.27c1.62.2,2.89.82,3.81,1.86s1.52,2.3,1.82,3.8h.08c.16-.84.48-1.61.95-2.31.48-.7,1.06-1.28,1.76-1.75.69-.47,1.47-.81,2.34-1.03s1.78-.26,2.73-.14c1.28.16,2.37.56,3.28,1.2.91.64,1.64,1.46,2.19,2.45.56.99.93,2.11,1.13,3.35.2,1.24.21,2.56.04,3.94l-1.19,9.72-28.28-3.54Zm12.21-2.37l.64-5.24c.09-.72.1-1.41.03-2.07-.07-.66-.25-1.25-.53-1.77-.29-.52-.68-.96-1.18-1.31-.5-.35-1.13-.57-1.91-.67-1.12-.14-2.13.1-3.05.71s-1.47,1.7-1.66,3.24l-.74,6.04,8.39,1.05Zm13.18,1.65l.69-5.64c.07-.59.09-1.24.06-1.96-.03-.72-.19-1.41-.48-2.07-.28-.66-.71-1.24-1.27-1.74s-1.35-.82-2.36-.95c-1.68-.21-3,.18-3.98,1.17s-1.57,2.41-1.8,4.28l-.7,5.68,9.83,1.23Z"/>
    </g>
    <g>
      <polygon class="cls-3" points="278.09 110.35 271.86 121.21 278.15 132.07 290.67 132.07 296.9 121.21 290.62 110.35 278.09 110.35"/>
      <polygon class="cls-3" points="178.58 300.31 184.87 311.17 197.39 311.17 203.63 300.31 197.34 289.45 184.82 289.45 178.58 300.31"/>
      <polygon class="cls-3" points="91.37 125.3 83.93 115.19 71.49 116.57 66.48 128.06 73.93 138.16 86.37 136.78 91.37 125.3"/>
    </g>
  </g>
  <ellipse class="cls-4" cx="184.27" cy="183.36" rx="81.97" ry="82.2"/>
  <g>
    <path class="cls-2" d="m129.02,179.64c-7.13,12.38-.69,26.66,7.14,31.19,7.83,4.54,18.47-5.95,25.6-18.33,7.13-12.38,12.83-30.22,4.99-34.76-7.83-4.54-30.61,9.52-37.73,21.9Z"/>
    <path class="cls-2" d="m239.74,179.64c7.13,12.38.69,26.66-7.14,31.19s-18.47-5.95-25.6-18.33c-7.13-12.38-12.83-30.22-4.99-34.76s30.61,9.52,37.73,21.9Z"/>
    <path class="cls-3" d="m166.96,178.04c2.94-14.68-3.68-25.56,21.09-25.56,13.16,0,10.18,19.84,15.32,34.43,3.63,10.3-9.4,32.85-22.14,29.53-12.74-3.32-17.1-24.29-14.27-38.4Z"/>
    <path class="cls-1" d="m128.8,179.64c-7.13,12.38-.69,26.66,7.14,31.19s18.47-5.95,25.6-18.33c7.13-12.38,12.83-30.22,4.99-34.76-7.83-4.54-30.61,9.52-37.73,21.9Z"/>
    <path class="cls-1" d="m239.05,179.64c7.13,12.38.69,26.66-7.14,31.19-7.83,4.54-18.47-5.95-25.6-18.33-7.13-12.38-12.83-30.22-4.99-34.76,7.83-4.54,30.61,9.52,37.73,21.9Z"/>
    <path class="cls-1" d="m199.64,159.14c-16.56-20.42-34.09-.26-33.11-1.39"/>
    <path class="cls-1" d="m197.69,164.01c-4.76,6.32-22.81,6.32-27.53,0"/>
    <path class="cls-1" d="m200.27,179.46c-4.76,6.32-27.97,6.32-32.69,0"/>
    <path class="cls-1" d="m204.52,189.22c-4.88,35.6-38.03,34.8-41.19,0"/>
    <path class="cls-1" d="m203.71,193.7c-4.62,10.94-35.56,10.97-40.43,0"/>
  </g>
</svg>