<?xml version="1.0" encoding="UTF-8"?>
<svg id="Layer_2" data-name="Layer 2" xmlns="http://www.w3.org/2000/svg" viewBox="0 0 164 164">
  <defs>
    <style>
      .cls-1 {
        fill: none;
        stroke: #2b2d42;
        stroke-miterlimit: 10;
        stroke-width: 6.03px;
      }

      .cls-2 {
        fill: #fff;
      }

      .cls-3 {
        fill: #fbb040;
      }

      .cls-4 {
        fill: #edf6f0;
      }
    </style>
  </defs>
  <g id="Layer_1-2" data-name="Layer 1">
    <g id="Layer_2-2" data-name="Layer 2">
      <g>
        <circle class="cls-4" cx="82" cy="82" r="82"/>
        <path class="cls-2" d="m26.65,78.02c-7.13,12.38-.69,26.66,7.14,31.19,7.83,4.54,18.47-5.95,25.6-18.33,7.13-12.38,12.83-30.22,4.99-34.76-7.83-4.54-30.61,9.52-37.73,21.9Z"/>
        <path class="cls-2" d="m137.38,78.02c7.13,12.38.69,26.66-7.14,31.19s-18.47-5.95-25.6-18.33c-7.13-12.38-12.83-30.22-4.99-34.76s30.61,9.52,37.73,21.9Z"/>
        <path class="cls-3" d="m64.6,76.42c2.94-14.68-3.68-25.56,21.09-25.56,13.16,0,10.18,19.84,15.32,34.43,3.63,10.3-9.4,32.85-22.14,29.53-12.74-3.32-17.1-24.29-14.27-38.4Z"/>
        <path class="cls-1" d="m26.44,78.02c-7.13,12.38-.69,26.66,7.14,31.19,7.83,4.54,18.47-5.95,25.6-18.33,7.13-12.38,12.83-30.22,4.99-34.76-7.83-4.54-30.61,9.52-37.73,21.9Z"/>
        <path class="cls-1" d="m136.69,78.02c7.13,12.38.69,26.66-7.14,31.19-7.83,4.54-18.47-5.95-25.6-18.33-7.13-12.38-12.83-30.22-4.99-34.76,7.83-4.54,30.61,9.52,37.73,21.9Z"/>
        <path class="cls-1" d="m97.28,57.51c-16.56-20.42-34.09-.26-33.11-1.39"/>
        <path class="cls-1" d="m95.33,62.38c-4.76,6.32-22.81,6.32-27.53,0"/>
        <path class="cls-1" d="m97.91,77.84c-4.76,6.32-27.97,6.32-32.69,0"/>
        <path class="cls-1" d="m102.16,87.59c-4.88,35.6-38.03,34.8-41.19,0"/>
        <path class="cls-1" d="m101.35,92.08c-4.62,10.94-35.56,10.97-40.43,0"/>
      </g>
    </g>
  </g>
</svg>